<mxfile host="app.diagrams.net" modified="2020-10-15T15:31:41.853Z" agent="5.0 (Macintosh; Intel Mac OS X 10_15_2) AppleWebKit/537.36 (KHTML, like Gecko) Chrome/86.0.4240.80 Safari/537.36" etag="E_Dky8r1172H6vjYPSAa" version="13.8.0" type="github">
  <diagram name="Page-1" id="e56a1550-8fbb-45ad-956c-1786394a9013">
    <mxGraphModel dx="1307" dy="495" grid="1" gridSize="10" guides="1" tooltips="1" connect="1" arrows="1" fold="1" page="1" pageScale="1" pageWidth="1654" pageHeight="1169" background="#ffffff" math="0" shadow="0">
      <root>
        <mxCell id="0" />
        <mxCell id="1" parent="0" />
        <mxCell id="ki4iIs-BJcIgKBQHwX4F-1" value="Customer" style="shape=table;startSize=30;container=1;collapsible=1;childLayout=tableLayout;fixedRows=1;rowLines=0;fontStyle=1;align=center;resizeLast=1;" vertex="1" parent="1">
          <mxGeometry x="647" y="30" width="180" height="460" as="geometry" />
        </mxCell>
        <mxCell id="ki4iIs-BJcIgKBQHwX4F-2" value="" style="shape=partialRectangle;collapsible=0;dropTarget=0;pointerEvents=0;fillColor=none;top=0;left=0;bottom=1;right=0;points=[[0,0.5],[1,0.5]];portConstraint=eastwest;" vertex="1" parent="ki4iIs-BJcIgKBQHwX4F-1">
          <mxGeometry y="30" width="180" height="30" as="geometry" />
        </mxCell>
        <mxCell id="ki4iIs-BJcIgKBQHwX4F-3" value="PK" style="shape=partialRectangle;connectable=0;fillColor=none;top=0;left=0;bottom=0;right=0;fontStyle=1;overflow=hidden;" vertex="1" parent="ki4iIs-BJcIgKBQHwX4F-2">
          <mxGeometry width="30" height="30" as="geometry" />
        </mxCell>
        <mxCell id="ki4iIs-BJcIgKBQHwX4F-4" value="customerID" style="shape=partialRectangle;connectable=0;fillColor=none;top=0;left=0;bottom=0;right=0;align=left;spacingLeft=6;fontStyle=5;overflow=hidden;" vertex="1" parent="ki4iIs-BJcIgKBQHwX4F-2">
          <mxGeometry x="30" width="150" height="30" as="geometry" />
        </mxCell>
        <mxCell id="ki4iIs-BJcIgKBQHwX4F-5" value="" style="shape=partialRectangle;collapsible=0;dropTarget=0;pointerEvents=0;fillColor=none;top=0;left=0;bottom=0;right=0;points=[[0,0.5],[1,0.5]];portConstraint=eastwest;" vertex="1" parent="ki4iIs-BJcIgKBQHwX4F-1">
          <mxGeometry y="60" width="180" height="30" as="geometry" />
        </mxCell>
        <mxCell id="ki4iIs-BJcIgKBQHwX4F-6" value="" style="shape=partialRectangle;connectable=0;fillColor=none;top=0;left=0;bottom=0;right=0;editable=1;overflow=hidden;" vertex="1" parent="ki4iIs-BJcIgKBQHwX4F-5">
          <mxGeometry width="30" height="30" as="geometry" />
        </mxCell>
        <mxCell id="ki4iIs-BJcIgKBQHwX4F-7" value="firstName" style="shape=partialRectangle;connectable=0;fillColor=none;top=0;left=0;bottom=0;right=0;align=left;spacingLeft=6;overflow=hidden;" vertex="1" parent="ki4iIs-BJcIgKBQHwX4F-5">
          <mxGeometry x="30" width="150" height="30" as="geometry" />
        </mxCell>
        <mxCell id="ki4iIs-BJcIgKBQHwX4F-8" value="" style="shape=partialRectangle;collapsible=0;dropTarget=0;pointerEvents=0;fillColor=none;top=0;left=0;bottom=0;right=0;points=[[0,0.5],[1,0.5]];portConstraint=eastwest;" vertex="1" parent="ki4iIs-BJcIgKBQHwX4F-1">
          <mxGeometry y="90" width="180" height="30" as="geometry" />
        </mxCell>
        <mxCell id="ki4iIs-BJcIgKBQHwX4F-9" value="" style="shape=partialRectangle;connectable=0;fillColor=none;top=0;left=0;bottom=0;right=0;editable=1;overflow=hidden;" vertex="1" parent="ki4iIs-BJcIgKBQHwX4F-8">
          <mxGeometry width="30" height="30" as="geometry" />
        </mxCell>
        <mxCell id="ki4iIs-BJcIgKBQHwX4F-10" value="lastName" style="shape=partialRectangle;connectable=0;fillColor=none;top=0;left=0;bottom=0;right=0;align=left;spacingLeft=6;overflow=hidden;" vertex="1" parent="ki4iIs-BJcIgKBQHwX4F-8">
          <mxGeometry x="30" width="150" height="30" as="geometry" />
        </mxCell>
        <mxCell id="ki4iIs-BJcIgKBQHwX4F-11" value="" style="shape=partialRectangle;collapsible=0;dropTarget=0;pointerEvents=0;fillColor=none;top=0;left=0;bottom=0;right=0;points=[[0,0.5],[1,0.5]];portConstraint=eastwest;" vertex="1" parent="ki4iIs-BJcIgKBQHwX4F-1">
          <mxGeometry y="120" width="180" height="30" as="geometry" />
        </mxCell>
        <mxCell id="ki4iIs-BJcIgKBQHwX4F-12" value="" style="shape=partialRectangle;connectable=0;fillColor=none;top=0;left=0;bottom=0;right=0;editable=1;overflow=hidden;" vertex="1" parent="ki4iIs-BJcIgKBQHwX4F-11">
          <mxGeometry width="30" height="30" as="geometry" />
        </mxCell>
        <mxCell id="ki4iIs-BJcIgKBQHwX4F-13" value="phone" style="shape=partialRectangle;connectable=0;fillColor=none;top=0;left=0;bottom=0;right=0;align=left;spacingLeft=6;overflow=hidden;" vertex="1" parent="ki4iIs-BJcIgKBQHwX4F-11">
          <mxGeometry x="30" width="150" height="30" as="geometry" />
        </mxCell>
        <mxCell id="ki4iIs-BJcIgKBQHwX4F-32" style="shape=partialRectangle;collapsible=0;dropTarget=0;pointerEvents=0;fillColor=none;top=0;left=0;bottom=0;right=0;points=[[0,0.5],[1,0.5]];portConstraint=eastwest;" vertex="1" parent="ki4iIs-BJcIgKBQHwX4F-1">
          <mxGeometry y="150" width="180" height="30" as="geometry" />
        </mxCell>
        <mxCell id="ki4iIs-BJcIgKBQHwX4F-33" style="shape=partialRectangle;connectable=0;fillColor=none;top=0;left=0;bottom=0;right=0;editable=1;overflow=hidden;" vertex="1" parent="ki4iIs-BJcIgKBQHwX4F-32">
          <mxGeometry width="30" height="30" as="geometry" />
        </mxCell>
        <mxCell id="ki4iIs-BJcIgKBQHwX4F-34" value="DOB" style="shape=partialRectangle;connectable=0;fillColor=none;top=0;left=0;bottom=0;right=0;align=left;spacingLeft=6;overflow=hidden;" vertex="1" parent="ki4iIs-BJcIgKBQHwX4F-32">
          <mxGeometry x="30" width="150" height="30" as="geometry" />
        </mxCell>
        <mxCell id="ki4iIs-BJcIgKBQHwX4F-29" style="shape=partialRectangle;collapsible=0;dropTarget=0;pointerEvents=0;fillColor=none;top=0;left=0;bottom=0;right=0;points=[[0,0.5],[1,0.5]];portConstraint=eastwest;" vertex="1" parent="ki4iIs-BJcIgKBQHwX4F-1">
          <mxGeometry y="180" width="180" height="30" as="geometry" />
        </mxCell>
        <mxCell id="ki4iIs-BJcIgKBQHwX4F-30" style="shape=partialRectangle;connectable=0;fillColor=none;top=0;left=0;bottom=0;right=0;editable=1;overflow=hidden;" vertex="1" parent="ki4iIs-BJcIgKBQHwX4F-29">
          <mxGeometry width="30" height="30" as="geometry" />
        </mxCell>
        <mxCell id="ki4iIs-BJcIgKBQHwX4F-31" value="gender" style="shape=partialRectangle;connectable=0;fillColor=none;top=0;left=0;bottom=0;right=0;align=left;spacingLeft=6;overflow=hidden;" vertex="1" parent="ki4iIs-BJcIgKBQHwX4F-29">
          <mxGeometry x="30" width="150" height="30" as="geometry" />
        </mxCell>
        <mxCell id="ki4iIs-BJcIgKBQHwX4F-26" style="shape=partialRectangle;collapsible=0;dropTarget=0;pointerEvents=0;fillColor=none;top=0;left=0;bottom=0;right=0;points=[[0,0.5],[1,0.5]];portConstraint=eastwest;" vertex="1" parent="ki4iIs-BJcIgKBQHwX4F-1">
          <mxGeometry y="210" width="180" height="30" as="geometry" />
        </mxCell>
        <mxCell id="ki4iIs-BJcIgKBQHwX4F-27" style="shape=partialRectangle;connectable=0;fillColor=none;top=0;left=0;bottom=0;right=0;editable=1;overflow=hidden;" vertex="1" parent="ki4iIs-BJcIgKBQHwX4F-26">
          <mxGeometry width="30" height="30" as="geometry" />
        </mxCell>
        <mxCell id="ki4iIs-BJcIgKBQHwX4F-28" value="emailAddress" style="shape=partialRectangle;connectable=0;fillColor=none;top=0;left=0;bottom=0;right=0;align=left;spacingLeft=6;overflow=hidden;" vertex="1" parent="ki4iIs-BJcIgKBQHwX4F-26">
          <mxGeometry x="30" width="150" height="30" as="geometry" />
        </mxCell>
        <mxCell id="ki4iIs-BJcIgKBQHwX4F-23" style="shape=partialRectangle;collapsible=0;dropTarget=0;pointerEvents=0;fillColor=none;top=0;left=0;bottom=0;right=0;points=[[0,0.5],[1,0.5]];portConstraint=eastwest;" vertex="1" parent="ki4iIs-BJcIgKBQHwX4F-1">
          <mxGeometry y="240" width="180" height="30" as="geometry" />
        </mxCell>
        <mxCell id="ki4iIs-BJcIgKBQHwX4F-24" style="shape=partialRectangle;connectable=0;fillColor=none;top=0;left=0;bottom=0;right=0;editable=1;overflow=hidden;" vertex="1" parent="ki4iIs-BJcIgKBQHwX4F-23">
          <mxGeometry width="30" height="30" as="geometry" />
        </mxCell>
        <mxCell id="ki4iIs-BJcIgKBQHwX4F-25" value="homeAddress" style="shape=partialRectangle;connectable=0;fillColor=none;top=0;left=0;bottom=0;right=0;align=left;spacingLeft=6;overflow=hidden;" vertex="1" parent="ki4iIs-BJcIgKBQHwX4F-23">
          <mxGeometry x="30" width="150" height="30" as="geometry" />
        </mxCell>
        <mxCell id="ki4iIs-BJcIgKBQHwX4F-20" style="shape=partialRectangle;collapsible=0;dropTarget=0;pointerEvents=0;fillColor=none;top=0;left=0;bottom=0;right=0;points=[[0,0.5],[1,0.5]];portConstraint=eastwest;" vertex="1" parent="ki4iIs-BJcIgKBQHwX4F-1">
          <mxGeometry y="270" width="180" height="30" as="geometry" />
        </mxCell>
        <mxCell id="ki4iIs-BJcIgKBQHwX4F-21" style="shape=partialRectangle;connectable=0;fillColor=none;top=0;left=0;bottom=0;right=0;editable=1;overflow=hidden;" vertex="1" parent="ki4iIs-BJcIgKBQHwX4F-20">
          <mxGeometry width="30" height="30" as="geometry" />
        </mxCell>
        <mxCell id="ki4iIs-BJcIgKBQHwX4F-22" value="country" style="shape=partialRectangle;connectable=0;fillColor=none;top=0;left=0;bottom=0;right=0;align=left;spacingLeft=6;overflow=hidden;" vertex="1" parent="ki4iIs-BJcIgKBQHwX4F-20">
          <mxGeometry x="30" width="150" height="30" as="geometry" />
        </mxCell>
        <mxCell id="ki4iIs-BJcIgKBQHwX4F-17" style="shape=partialRectangle;collapsible=0;dropTarget=0;pointerEvents=0;fillColor=none;top=0;left=0;bottom=0;right=0;points=[[0,0.5],[1,0.5]];portConstraint=eastwest;" vertex="1" parent="ki4iIs-BJcIgKBQHwX4F-1">
          <mxGeometry y="300" width="180" height="30" as="geometry" />
        </mxCell>
        <mxCell id="ki4iIs-BJcIgKBQHwX4F-18" style="shape=partialRectangle;connectable=0;fillColor=none;top=0;left=0;bottom=0;right=0;editable=1;overflow=hidden;" vertex="1" parent="ki4iIs-BJcIgKBQHwX4F-17">
          <mxGeometry width="30" height="30" as="geometry" />
        </mxCell>
        <mxCell id="ki4iIs-BJcIgKBQHwX4F-19" value="city" style="shape=partialRectangle;connectable=0;fillColor=none;top=0;left=0;bottom=0;right=0;align=left;spacingLeft=6;overflow=hidden;" vertex="1" parent="ki4iIs-BJcIgKBQHwX4F-17">
          <mxGeometry x="30" width="150" height="30" as="geometry" />
        </mxCell>
        <mxCell id="ki4iIs-BJcIgKBQHwX4F-14" style="shape=partialRectangle;collapsible=0;dropTarget=0;pointerEvents=0;fillColor=none;top=0;left=0;bottom=0;right=0;points=[[0,0.5],[1,0.5]];portConstraint=eastwest;" vertex="1" parent="ki4iIs-BJcIgKBQHwX4F-1">
          <mxGeometry y="330" width="180" height="30" as="geometry" />
        </mxCell>
        <mxCell id="ki4iIs-BJcIgKBQHwX4F-15" style="shape=partialRectangle;connectable=0;fillColor=none;top=0;left=0;bottom=0;right=0;editable=1;overflow=hidden;" vertex="1" parent="ki4iIs-BJcIgKBQHwX4F-14">
          <mxGeometry width="30" height="30" as="geometry" />
        </mxCell>
        <mxCell id="ki4iIs-BJcIgKBQHwX4F-16" value="state" style="shape=partialRectangle;connectable=0;fillColor=none;top=0;left=0;bottom=0;right=0;align=left;spacingLeft=6;overflow=hidden;" vertex="1" parent="ki4iIs-BJcIgKBQHwX4F-14">
          <mxGeometry x="30" width="150" height="30" as="geometry" />
        </mxCell>
        <mxCell id="ki4iIs-BJcIgKBQHwX4F-44" style="shape=partialRectangle;collapsible=0;dropTarget=0;pointerEvents=0;fillColor=none;top=0;left=0;bottom=0;right=0;points=[[0,0.5],[1,0.5]];portConstraint=eastwest;" vertex="1" parent="ki4iIs-BJcIgKBQHwX4F-1">
          <mxGeometry y="360" width="180" height="30" as="geometry" />
        </mxCell>
        <mxCell id="ki4iIs-BJcIgKBQHwX4F-45" style="shape=partialRectangle;connectable=0;fillColor=none;top=0;left=0;bottom=0;right=0;editable=1;overflow=hidden;" vertex="1" parent="ki4iIs-BJcIgKBQHwX4F-44">
          <mxGeometry width="30" height="30" as="geometry" />
        </mxCell>
        <mxCell id="ki4iIs-BJcIgKBQHwX4F-46" value="zipCode" style="shape=partialRectangle;connectable=0;fillColor=none;top=0;left=0;bottom=0;right=0;align=left;spacingLeft=6;overflow=hidden;" vertex="1" parent="ki4iIs-BJcIgKBQHwX4F-44">
          <mxGeometry x="30" width="150" height="30" as="geometry" />
        </mxCell>
        <mxCell id="ki4iIs-BJcIgKBQHwX4F-41" style="shape=partialRectangle;collapsible=0;dropTarget=0;pointerEvents=0;fillColor=none;top=0;left=0;bottom=0;right=0;points=[[0,0.5],[1,0.5]];portConstraint=eastwest;" vertex="1" parent="ki4iIs-BJcIgKBQHwX4F-1">
          <mxGeometry y="390" width="180" height="30" as="geometry" />
        </mxCell>
        <mxCell id="ki4iIs-BJcIgKBQHwX4F-42" style="shape=partialRectangle;connectable=0;fillColor=none;top=0;left=0;bottom=0;right=0;editable=1;overflow=hidden;" vertex="1" parent="ki4iIs-BJcIgKBQHwX4F-41">
          <mxGeometry width="30" height="30" as="geometry" />
        </mxCell>
        <mxCell id="ki4iIs-BJcIgKBQHwX4F-43" value="firstEnrollmentDate" style="shape=partialRectangle;connectable=0;fillColor=none;top=0;left=0;bottom=0;right=0;align=left;spacingLeft=6;overflow=hidden;" vertex="1" parent="ki4iIs-BJcIgKBQHwX4F-41">
          <mxGeometry x="30" width="150" height="30" as="geometry" />
        </mxCell>
        <mxCell id="ki4iIs-BJcIgKBQHwX4F-38" style="shape=partialRectangle;collapsible=0;dropTarget=0;pointerEvents=0;fillColor=none;top=0;left=0;bottom=0;right=0;points=[[0,0.5],[1,0.5]];portConstraint=eastwest;" vertex="1" parent="ki4iIs-BJcIgKBQHwX4F-1">
          <mxGeometry y="420" width="180" height="30" as="geometry" />
        </mxCell>
        <mxCell id="ki4iIs-BJcIgKBQHwX4F-39" style="shape=partialRectangle;connectable=0;fillColor=none;top=0;left=0;bottom=0;right=0;editable=1;overflow=hidden;" vertex="1" parent="ki4iIs-BJcIgKBQHwX4F-38">
          <mxGeometry width="30" height="30" as="geometry" />
        </mxCell>
        <mxCell id="ki4iIs-BJcIgKBQHwX4F-40" value="genderPreference" style="shape=partialRectangle;connectable=0;fillColor=none;top=0;left=0;bottom=0;right=0;align=left;spacingLeft=6;overflow=hidden;" vertex="1" parent="ki4iIs-BJcIgKBQHwX4F-38">
          <mxGeometry x="30" width="150" height="30" as="geometry" />
        </mxCell>
        <mxCell id="ki4iIs-BJcIgKBQHwX4F-129" value="Course" style="shape=table;startSize=30;container=1;collapsible=1;childLayout=tableLayout;fixedRows=1;rowLines=0;fontStyle=1;align=center;resizeLast=1;" vertex="1" parent="1">
          <mxGeometry x="40" y="90" width="180" height="220" as="geometry" />
        </mxCell>
        <mxCell id="ki4iIs-BJcIgKBQHwX4F-130" value="" style="shape=partialRectangle;collapsible=0;dropTarget=0;pointerEvents=0;fillColor=none;top=0;left=0;bottom=1;right=0;points=[[0,0.5],[1,0.5]];portConstraint=eastwest;" vertex="1" parent="ki4iIs-BJcIgKBQHwX4F-129">
          <mxGeometry y="30" width="180" height="30" as="geometry" />
        </mxCell>
        <mxCell id="ki4iIs-BJcIgKBQHwX4F-131" value="PK" style="shape=partialRectangle;connectable=0;fillColor=none;top=0;left=0;bottom=0;right=0;fontStyle=1;overflow=hidden;" vertex="1" parent="ki4iIs-BJcIgKBQHwX4F-130">
          <mxGeometry width="30" height="30" as="geometry" />
        </mxCell>
        <mxCell id="ki4iIs-BJcIgKBQHwX4F-132" value="courseCode" style="shape=partialRectangle;connectable=0;fillColor=none;top=0;left=0;bottom=0;right=0;align=left;spacingLeft=6;fontStyle=5;overflow=hidden;" vertex="1" parent="ki4iIs-BJcIgKBQHwX4F-130">
          <mxGeometry x="30" width="150" height="30" as="geometry" />
        </mxCell>
        <mxCell id="ki4iIs-BJcIgKBQHwX4F-133" value="" style="shape=partialRectangle;collapsible=0;dropTarget=0;pointerEvents=0;fillColor=none;top=0;left=0;bottom=0;right=0;points=[[0,0.5],[1,0.5]];portConstraint=eastwest;" vertex="1" parent="ki4iIs-BJcIgKBQHwX4F-129">
          <mxGeometry y="60" width="180" height="30" as="geometry" />
        </mxCell>
        <mxCell id="ki4iIs-BJcIgKBQHwX4F-134" value="" style="shape=partialRectangle;connectable=0;fillColor=none;top=0;left=0;bottom=0;right=0;editable=1;overflow=hidden;" vertex="1" parent="ki4iIs-BJcIgKBQHwX4F-133">
          <mxGeometry width="30" height="30" as="geometry" />
        </mxCell>
        <mxCell id="ki4iIs-BJcIgKBQHwX4F-135" value="classificationID" style="shape=partialRectangle;connectable=0;fillColor=none;top=0;left=0;bottom=0;right=0;align=left;spacingLeft=6;overflow=hidden;" vertex="1" parent="ki4iIs-BJcIgKBQHwX4F-133">
          <mxGeometry x="30" width="150" height="30" as="geometry" />
        </mxCell>
        <mxCell id="ki4iIs-BJcIgKBQHwX4F-136" value="" style="shape=partialRectangle;collapsible=0;dropTarget=0;pointerEvents=0;fillColor=none;top=0;left=0;bottom=0;right=0;points=[[0,0.5],[1,0.5]];portConstraint=eastwest;" vertex="1" parent="ki4iIs-BJcIgKBQHwX4F-129">
          <mxGeometry y="90" width="180" height="30" as="geometry" />
        </mxCell>
        <mxCell id="ki4iIs-BJcIgKBQHwX4F-137" value="" style="shape=partialRectangle;connectable=0;fillColor=none;top=0;left=0;bottom=0;right=0;editable=1;overflow=hidden;" vertex="1" parent="ki4iIs-BJcIgKBQHwX4F-136">
          <mxGeometry width="30" height="30" as="geometry" />
        </mxCell>
        <mxCell id="ki4iIs-BJcIgKBQHwX4F-138" value="courseName" style="shape=partialRectangle;connectable=0;fillColor=none;top=0;left=0;bottom=0;right=0;align=left;spacingLeft=6;overflow=hidden;" vertex="1" parent="ki4iIs-BJcIgKBQHwX4F-136">
          <mxGeometry x="30" width="150" height="30" as="geometry" />
        </mxCell>
        <mxCell id="ki4iIs-BJcIgKBQHwX4F-139" value="" style="shape=partialRectangle;collapsible=0;dropTarget=0;pointerEvents=0;fillColor=none;top=0;left=0;bottom=0;right=0;points=[[0,0.5],[1,0.5]];portConstraint=eastwest;" vertex="1" parent="ki4iIs-BJcIgKBQHwX4F-129">
          <mxGeometry y="120" width="180" height="30" as="geometry" />
        </mxCell>
        <mxCell id="ki4iIs-BJcIgKBQHwX4F-140" value="" style="shape=partialRectangle;connectable=0;fillColor=none;top=0;left=0;bottom=0;right=0;editable=1;overflow=hidden;" vertex="1" parent="ki4iIs-BJcIgKBQHwX4F-139">
          <mxGeometry width="30" height="30" as="geometry" />
        </mxCell>
        <mxCell id="ki4iIs-BJcIgKBQHwX4F-141" value="description" style="shape=partialRectangle;connectable=0;fillColor=none;top=0;left=0;bottom=0;right=0;align=left;spacingLeft=6;overflow=hidden;" vertex="1" parent="ki4iIs-BJcIgKBQHwX4F-139">
          <mxGeometry x="30" width="150" height="30" as="geometry" />
        </mxCell>
        <mxCell id="ki4iIs-BJcIgKBQHwX4F-142" style="shape=partialRectangle;collapsible=0;dropTarget=0;pointerEvents=0;fillColor=none;top=0;left=0;bottom=0;right=0;points=[[0,0.5],[1,0.5]];portConstraint=eastwest;" vertex="1" parent="ki4iIs-BJcIgKBQHwX4F-129">
          <mxGeometry y="150" width="180" height="30" as="geometry" />
        </mxCell>
        <mxCell id="ki4iIs-BJcIgKBQHwX4F-143" style="shape=partialRectangle;connectable=0;fillColor=none;top=0;left=0;bottom=0;right=0;editable=1;overflow=hidden;" vertex="1" parent="ki4iIs-BJcIgKBQHwX4F-142">
          <mxGeometry width="30" height="30" as="geometry" />
        </mxCell>
        <mxCell id="ki4iIs-BJcIgKBQHwX4F-144" value="level" style="shape=partialRectangle;connectable=0;fillColor=none;top=0;left=0;bottom=0;right=0;align=left;spacingLeft=6;overflow=hidden;" vertex="1" parent="ki4iIs-BJcIgKBQHwX4F-142">
          <mxGeometry x="30" width="150" height="30" as="geometry" />
        </mxCell>
        <mxCell id="ki4iIs-BJcIgKBQHwX4F-145" style="shape=partialRectangle;collapsible=0;dropTarget=0;pointerEvents=0;fillColor=none;top=0;left=0;bottom=0;right=0;points=[[0,0.5],[1,0.5]];portConstraint=eastwest;" vertex="1" parent="ki4iIs-BJcIgKBQHwX4F-129">
          <mxGeometry y="180" width="180" height="30" as="geometry" />
        </mxCell>
        <mxCell id="ki4iIs-BJcIgKBQHwX4F-146" style="shape=partialRectangle;connectable=0;fillColor=none;top=0;left=0;bottom=0;right=0;editable=1;overflow=hidden;" vertex="1" parent="ki4iIs-BJcIgKBQHwX4F-145">
          <mxGeometry width="30" height="30" as="geometry" />
        </mxCell>
        <mxCell id="ki4iIs-BJcIgKBQHwX4F-147" value="price" style="shape=partialRectangle;connectable=0;fillColor=none;top=0;left=0;bottom=0;right=0;align=left;spacingLeft=6;overflow=hidden;" vertex="1" parent="ki4iIs-BJcIgKBQHwX4F-145">
          <mxGeometry x="30" width="150" height="30" as="geometry" />
        </mxCell>
        <mxCell id="ki4iIs-BJcIgKBQHwX4F-151" value="Classification" style="shape=table;startSize=30;container=1;collapsible=1;childLayout=tableLayout;fixedRows=1;rowLines=0;fontStyle=1;align=center;resizeLast=1;" vertex="1" parent="1">
          <mxGeometry x="320" y="30" width="180" height="100" as="geometry" />
        </mxCell>
        <mxCell id="ki4iIs-BJcIgKBQHwX4F-152" value="" style="shape=partialRectangle;collapsible=0;dropTarget=0;pointerEvents=0;fillColor=none;top=0;left=0;bottom=1;right=0;points=[[0,0.5],[1,0.5]];portConstraint=eastwest;" vertex="1" parent="ki4iIs-BJcIgKBQHwX4F-151">
          <mxGeometry y="30" width="180" height="30" as="geometry" />
        </mxCell>
        <mxCell id="ki4iIs-BJcIgKBQHwX4F-153" value="PK" style="shape=partialRectangle;connectable=0;fillColor=none;top=0;left=0;bottom=0;right=0;fontStyle=1;overflow=hidden;" vertex="1" parent="ki4iIs-BJcIgKBQHwX4F-152">
          <mxGeometry width="30" height="30" as="geometry" />
        </mxCell>
        <mxCell id="ki4iIs-BJcIgKBQHwX4F-154" value="classificationID" style="shape=partialRectangle;connectable=0;fillColor=none;top=0;left=0;bottom=0;right=0;align=left;spacingLeft=6;fontStyle=5;overflow=hidden;" vertex="1" parent="ki4iIs-BJcIgKBQHwX4F-152">
          <mxGeometry x="30" width="150" height="30" as="geometry" />
        </mxCell>
        <mxCell id="ki4iIs-BJcIgKBQHwX4F-155" value="" style="shape=partialRectangle;collapsible=0;dropTarget=0;pointerEvents=0;fillColor=none;top=0;left=0;bottom=0;right=0;points=[[0,0.5],[1,0.5]];portConstraint=eastwest;" vertex="1" parent="ki4iIs-BJcIgKBQHwX4F-151">
          <mxGeometry y="60" width="180" height="30" as="geometry" />
        </mxCell>
        <mxCell id="ki4iIs-BJcIgKBQHwX4F-156" value="" style="shape=partialRectangle;connectable=0;fillColor=none;top=0;left=0;bottom=0;right=0;editable=1;overflow=hidden;" vertex="1" parent="ki4iIs-BJcIgKBQHwX4F-155">
          <mxGeometry width="30" height="30" as="geometry" />
        </mxCell>
        <mxCell id="ki4iIs-BJcIgKBQHwX4F-157" value="classificationName" style="shape=partialRectangle;connectable=0;fillColor=none;top=0;left=0;bottom=0;right=0;align=left;spacingLeft=6;overflow=hidden;" vertex="1" parent="ki4iIs-BJcIgKBQHwX4F-155">
          <mxGeometry x="30" width="150" height="30" as="geometry" />
        </mxCell>
        <mxCell id="ki4iIs-BJcIgKBQHwX4F-180" value="" style="edgeStyle=entityRelationEdgeStyle;fontSize=12;html=1;endArrow=ERzeroToMany;startArrow=ERmandOne;exitX=0;exitY=0.5;exitDx=0;exitDy=0;entryX=1;entryY=0.5;entryDx=0;entryDy=0;" edge="1" parent="1" source="ki4iIs-BJcIgKBQHwX4F-152" target="ki4iIs-BJcIgKBQHwX4F-133">
          <mxGeometry width="100" height="100" relative="1" as="geometry">
            <mxPoint x="310" y="270" as="sourcePoint" />
            <mxPoint x="410" y="170" as="targetPoint" />
          </mxGeometry>
        </mxCell>
        <mxCell id="ki4iIs-BJcIgKBQHwX4F-181" value="" style="edgeStyle=orthogonalEdgeStyle;fontSize=12;html=1;endArrow=ERzeroToMany;startArrow=ERmandOne;exitX=0;exitY=0.5;exitDx=0;exitDy=0;entryX=0;entryY=0.5;entryDx=0;entryDy=0;" edge="1" parent="1" source="ki4iIs-BJcIgKBQHwX4F-130" target="ki4iIs-BJcIgKBQHwX4F-162">
          <mxGeometry width="100" height="100" relative="1" as="geometry">
            <mxPoint x="310" y="340" as="sourcePoint" />
            <mxPoint x="410" y="240" as="targetPoint" />
            <Array as="points">
              <mxPoint x="20" y="135" />
              <mxPoint x="20" y="355" />
            </Array>
          </mxGeometry>
        </mxCell>
        <mxCell id="ki4iIs-BJcIgKBQHwX4F-182" value="" style="edgeStyle=entityRelationEdgeStyle;fontSize=12;html=1;endArrow=ERzeroToMany;startArrow=ERmandOne;exitX=0;exitY=0.5;exitDx=0;exitDy=0;entryX=1;entryY=0.5;entryDx=0;entryDy=0;" edge="1" parent="1" source="ki4iIs-BJcIgKBQHwX4F-2" target="ki4iIs-BJcIgKBQHwX4F-165">
          <mxGeometry width="100" height="100" relative="1" as="geometry">
            <mxPoint x="310" y="310" as="sourcePoint" />
            <mxPoint x="410" y="210" as="targetPoint" />
          </mxGeometry>
        </mxCell>
        <mxCell id="ki4iIs-BJcIgKBQHwX4F-200" value="" style="edgeStyle=entityRelationEdgeStyle;fontSize=12;html=1;endArrow=ERzeroToMany;startArrow=ERmandOne;exitX=1;exitY=0.5;exitDx=0;exitDy=0;entryX=0;entryY=0.5;entryDx=0;entryDy=0;" edge="1" parent="1" source="ki4iIs-BJcIgKBQHwX4F-185" target="ki4iIs-BJcIgKBQHwX4F-168">
          <mxGeometry width="100" height="100" relative="1" as="geometry">
            <mxPoint x="310" y="590" as="sourcePoint" />
            <mxPoint x="410" y="490" as="targetPoint" />
          </mxGeometry>
        </mxCell>
        <mxCell id="ki4iIs-BJcIgKBQHwX4F-158" value="Enrollment" style="shape=table;startSize=30;container=1;collapsible=1;childLayout=tableLayout;fixedRows=1;rowLines=0;fontStyle=1;align=center;resizeLast=1;" vertex="1" parent="1">
          <mxGeometry x="310" y="280" width="180" height="250" as="geometry" />
        </mxCell>
        <mxCell id="ki4iIs-BJcIgKBQHwX4F-159" value="" style="shape=partialRectangle;collapsible=0;dropTarget=0;pointerEvents=0;fillColor=none;top=0;left=0;bottom=1;right=0;points=[[0,0.5],[1,0.5]];portConstraint=eastwest;" vertex="1" parent="ki4iIs-BJcIgKBQHwX4F-158">
          <mxGeometry y="30" width="180" height="30" as="geometry" />
        </mxCell>
        <mxCell id="ki4iIs-BJcIgKBQHwX4F-160" value="PK" style="shape=partialRectangle;connectable=0;fillColor=none;top=0;left=0;bottom=0;right=0;fontStyle=1;overflow=hidden;" vertex="1" parent="ki4iIs-BJcIgKBQHwX4F-159">
          <mxGeometry width="30" height="30" as="geometry" />
        </mxCell>
        <mxCell id="ki4iIs-BJcIgKBQHwX4F-161" value="enrollmentID" style="shape=partialRectangle;connectable=0;fillColor=none;top=0;left=0;bottom=0;right=0;align=left;spacingLeft=6;fontStyle=5;overflow=hidden;" vertex="1" parent="ki4iIs-BJcIgKBQHwX4F-159">
          <mxGeometry x="30" width="150" height="30" as="geometry" />
        </mxCell>
        <mxCell id="ki4iIs-BJcIgKBQHwX4F-162" value="" style="shape=partialRectangle;collapsible=0;dropTarget=0;pointerEvents=0;fillColor=none;top=0;left=0;bottom=0;right=0;points=[[0,0.5],[1,0.5]];portConstraint=eastwest;" vertex="1" parent="ki4iIs-BJcIgKBQHwX4F-158">
          <mxGeometry y="60" width="180" height="30" as="geometry" />
        </mxCell>
        <mxCell id="ki4iIs-BJcIgKBQHwX4F-163" value="FK1" style="shape=partialRectangle;connectable=0;fillColor=none;top=0;left=0;bottom=0;right=0;editable=1;overflow=hidden;" vertex="1" parent="ki4iIs-BJcIgKBQHwX4F-162">
          <mxGeometry width="30" height="30" as="geometry" />
        </mxCell>
        <mxCell id="ki4iIs-BJcIgKBQHwX4F-164" value="courseCode" style="shape=partialRectangle;connectable=0;fillColor=none;top=0;left=0;bottom=0;right=0;align=left;spacingLeft=6;overflow=hidden;" vertex="1" parent="ki4iIs-BJcIgKBQHwX4F-162">
          <mxGeometry x="30" width="150" height="30" as="geometry" />
        </mxCell>
        <mxCell id="ki4iIs-BJcIgKBQHwX4F-165" value="" style="shape=partialRectangle;collapsible=0;dropTarget=0;pointerEvents=0;fillColor=none;top=0;left=0;bottom=0;right=0;points=[[0,0.5],[1,0.5]];portConstraint=eastwest;" vertex="1" parent="ki4iIs-BJcIgKBQHwX4F-158">
          <mxGeometry y="90" width="180" height="30" as="geometry" />
        </mxCell>
        <mxCell id="ki4iIs-BJcIgKBQHwX4F-166" value="FK2" style="shape=partialRectangle;connectable=0;fillColor=none;top=0;left=0;bottom=0;right=0;editable=1;overflow=hidden;" vertex="1" parent="ki4iIs-BJcIgKBQHwX4F-165">
          <mxGeometry width="30" height="30" as="geometry" />
        </mxCell>
        <mxCell id="ki4iIs-BJcIgKBQHwX4F-167" value="customerID" style="shape=partialRectangle;connectable=0;fillColor=none;top=0;left=0;bottom=0;right=0;align=left;spacingLeft=6;overflow=hidden;" vertex="1" parent="ki4iIs-BJcIgKBQHwX4F-165">
          <mxGeometry x="30" width="150" height="30" as="geometry" />
        </mxCell>
        <mxCell id="ki4iIs-BJcIgKBQHwX4F-168" value="" style="shape=partialRectangle;collapsible=0;dropTarget=0;pointerEvents=0;fillColor=none;top=0;left=0;bottom=0;right=0;points=[[0,0.5],[1,0.5]];portConstraint=eastwest;" vertex="1" parent="ki4iIs-BJcIgKBQHwX4F-158">
          <mxGeometry y="120" width="180" height="30" as="geometry" />
        </mxCell>
        <mxCell id="ki4iIs-BJcIgKBQHwX4F-169" value="FK3" style="shape=partialRectangle;connectable=0;fillColor=none;top=0;left=0;bottom=0;right=0;editable=1;overflow=hidden;" vertex="1" parent="ki4iIs-BJcIgKBQHwX4F-168">
          <mxGeometry width="30" height="30" as="geometry" />
        </mxCell>
        <mxCell id="ki4iIs-BJcIgKBQHwX4F-170" value="fieldName" style="shape=partialRectangle;connectable=0;fillColor=none;top=0;left=0;bottom=0;right=0;align=left;spacingLeft=6;overflow=hidden;" vertex="1" parent="ki4iIs-BJcIgKBQHwX4F-168">
          <mxGeometry x="30" width="150" height="30" as="geometry" />
        </mxCell>
        <mxCell id="ki4iIs-BJcIgKBQHwX4F-177" style="shape=partialRectangle;collapsible=0;dropTarget=0;pointerEvents=0;fillColor=none;top=0;left=0;bottom=0;right=0;points=[[0,0.5],[1,0.5]];portConstraint=eastwest;" vertex="1" parent="ki4iIs-BJcIgKBQHwX4F-158">
          <mxGeometry y="150" width="180" height="30" as="geometry" />
        </mxCell>
        <mxCell id="ki4iIs-BJcIgKBQHwX4F-178" value="FK4" style="shape=partialRectangle;connectable=0;fillColor=none;top=0;left=0;bottom=0;right=0;editable=1;overflow=hidden;" vertex="1" parent="ki4iIs-BJcIgKBQHwX4F-177">
          <mxGeometry width="30" height="30" as="geometry" />
        </mxCell>
        <mxCell id="ki4iIs-BJcIgKBQHwX4F-179" value="staffID" style="shape=partialRectangle;connectable=0;fillColor=none;top=0;left=0;bottom=0;right=0;align=left;spacingLeft=6;overflow=hidden;" vertex="1" parent="ki4iIs-BJcIgKBQHwX4F-177">
          <mxGeometry x="30" width="150" height="30" as="geometry" />
        </mxCell>
        <mxCell id="ki4iIs-BJcIgKBQHwX4F-174" style="shape=partialRectangle;collapsible=0;dropTarget=0;pointerEvents=0;fillColor=none;top=0;left=0;bottom=0;right=0;points=[[0,0.5],[1,0.5]];portConstraint=eastwest;" vertex="1" parent="ki4iIs-BJcIgKBQHwX4F-158">
          <mxGeometry y="180" width="180" height="30" as="geometry" />
        </mxCell>
        <mxCell id="ki4iIs-BJcIgKBQHwX4F-175" style="shape=partialRectangle;connectable=0;fillColor=none;top=0;left=0;bottom=0;right=0;editable=1;overflow=hidden;" vertex="1" parent="ki4iIs-BJcIgKBQHwX4F-174">
          <mxGeometry width="30" height="30" as="geometry" />
        </mxCell>
        <mxCell id="ki4iIs-BJcIgKBQHwX4F-176" value="startDate" style="shape=partialRectangle;connectable=0;fillColor=none;top=0;left=0;bottom=0;right=0;align=left;spacingLeft=6;overflow=hidden;" vertex="1" parent="ki4iIs-BJcIgKBQHwX4F-174">
          <mxGeometry x="30" width="150" height="30" as="geometry" />
        </mxCell>
        <mxCell id="ki4iIs-BJcIgKBQHwX4F-171" style="shape=partialRectangle;collapsible=0;dropTarget=0;pointerEvents=0;fillColor=none;top=0;left=0;bottom=0;right=0;points=[[0,0.5],[1,0.5]];portConstraint=eastwest;" vertex="1" parent="ki4iIs-BJcIgKBQHwX4F-158">
          <mxGeometry y="210" width="180" height="30" as="geometry" />
        </mxCell>
        <mxCell id="ki4iIs-BJcIgKBQHwX4F-172" style="shape=partialRectangle;connectable=0;fillColor=none;top=0;left=0;bottom=0;right=0;editable=1;overflow=hidden;" vertex="1" parent="ki4iIs-BJcIgKBQHwX4F-171">
          <mxGeometry width="30" height="30" as="geometry" />
        </mxCell>
        <mxCell id="ki4iIs-BJcIgKBQHwX4F-173" value="endDate" style="shape=partialRectangle;connectable=0;fillColor=none;top=0;left=0;bottom=0;right=0;align=left;spacingLeft=6;overflow=hidden;" vertex="1" parent="ki4iIs-BJcIgKBQHwX4F-171">
          <mxGeometry x="30" width="150" height="30" as="geometry" />
        </mxCell>
        <mxCell id="ki4iIs-BJcIgKBQHwX4F-184" value="Snowfield" style="shape=table;startSize=30;container=1;collapsible=1;childLayout=tableLayout;fixedRows=1;rowLines=0;fontStyle=1;align=center;resizeLast=1;" vertex="1" parent="1">
          <mxGeometry x="30" y="370" width="180" height="190" as="geometry" />
        </mxCell>
        <mxCell id="ki4iIs-BJcIgKBQHwX4F-185" value="" style="shape=partialRectangle;collapsible=0;dropTarget=0;pointerEvents=0;fillColor=none;top=0;left=0;bottom=1;right=0;points=[[0,0.5],[1,0.5]];portConstraint=eastwest;" vertex="1" parent="ki4iIs-BJcIgKBQHwX4F-184">
          <mxGeometry y="30" width="180" height="30" as="geometry" />
        </mxCell>
        <mxCell id="ki4iIs-BJcIgKBQHwX4F-186" value="PK" style="shape=partialRectangle;connectable=0;fillColor=none;top=0;left=0;bottom=0;right=0;fontStyle=1;overflow=hidden;" vertex="1" parent="ki4iIs-BJcIgKBQHwX4F-185">
          <mxGeometry width="30" height="30" as="geometry" />
        </mxCell>
        <mxCell id="ki4iIs-BJcIgKBQHwX4F-187" value="fieldName" style="shape=partialRectangle;connectable=0;fillColor=none;top=0;left=0;bottom=0;right=0;align=left;spacingLeft=6;fontStyle=5;overflow=hidden;" vertex="1" parent="ki4iIs-BJcIgKBQHwX4F-185">
          <mxGeometry x="30" width="150" height="30" as="geometry" />
        </mxCell>
        <mxCell id="ki4iIs-BJcIgKBQHwX4F-188" value="" style="shape=partialRectangle;collapsible=0;dropTarget=0;pointerEvents=0;fillColor=none;top=0;left=0;bottom=0;right=0;points=[[0,0.5],[1,0.5]];portConstraint=eastwest;" vertex="1" parent="ki4iIs-BJcIgKBQHwX4F-184">
          <mxGeometry y="60" width="180" height="30" as="geometry" />
        </mxCell>
        <mxCell id="ki4iIs-BJcIgKBQHwX4F-189" value="" style="shape=partialRectangle;connectable=0;fillColor=none;top=0;left=0;bottom=0;right=0;editable=1;overflow=hidden;" vertex="1" parent="ki4iIs-BJcIgKBQHwX4F-188">
          <mxGeometry width="30" height="30" as="geometry" />
        </mxCell>
        <mxCell id="ki4iIs-BJcIgKBQHwX4F-190" value="address" style="shape=partialRectangle;connectable=0;fillColor=none;top=0;left=0;bottom=0;right=0;align=left;spacingLeft=6;overflow=hidden;" vertex="1" parent="ki4iIs-BJcIgKBQHwX4F-188">
          <mxGeometry x="30" width="150" height="30" as="geometry" />
        </mxCell>
        <mxCell id="ki4iIs-BJcIgKBQHwX4F-191" value="" style="shape=partialRectangle;collapsible=0;dropTarget=0;pointerEvents=0;fillColor=none;top=0;left=0;bottom=0;right=0;points=[[0,0.5],[1,0.5]];portConstraint=eastwest;" vertex="1" parent="ki4iIs-BJcIgKBQHwX4F-184">
          <mxGeometry y="90" width="180" height="30" as="geometry" />
        </mxCell>
        <mxCell id="ki4iIs-BJcIgKBQHwX4F-192" value="" style="shape=partialRectangle;connectable=0;fillColor=none;top=0;left=0;bottom=0;right=0;editable=1;overflow=hidden;" vertex="1" parent="ki4iIs-BJcIgKBQHwX4F-191">
          <mxGeometry width="30" height="30" as="geometry" />
        </mxCell>
        <mxCell id="ki4iIs-BJcIgKBQHwX4F-193" value="state" style="shape=partialRectangle;connectable=0;fillColor=none;top=0;left=0;bottom=0;right=0;align=left;spacingLeft=6;overflow=hidden;" vertex="1" parent="ki4iIs-BJcIgKBQHwX4F-191">
          <mxGeometry x="30" width="150" height="30" as="geometry" />
        </mxCell>
        <mxCell id="ki4iIs-BJcIgKBQHwX4F-194" value="" style="shape=partialRectangle;collapsible=0;dropTarget=0;pointerEvents=0;fillColor=none;top=0;left=0;bottom=0;right=0;points=[[0,0.5],[1,0.5]];portConstraint=eastwest;" vertex="1" parent="ki4iIs-BJcIgKBQHwX4F-184">
          <mxGeometry y="120" width="180" height="30" as="geometry" />
        </mxCell>
        <mxCell id="ki4iIs-BJcIgKBQHwX4F-195" value="" style="shape=partialRectangle;connectable=0;fillColor=none;top=0;left=0;bottom=0;right=0;editable=1;overflow=hidden;" vertex="1" parent="ki4iIs-BJcIgKBQHwX4F-194">
          <mxGeometry width="30" height="30" as="geometry" />
        </mxCell>
        <mxCell id="ki4iIs-BJcIgKBQHwX4F-196" value="city" style="shape=partialRectangle;connectable=0;fillColor=none;top=0;left=0;bottom=0;right=0;align=left;spacingLeft=6;overflow=hidden;" vertex="1" parent="ki4iIs-BJcIgKBQHwX4F-194">
          <mxGeometry x="30" width="150" height="30" as="geometry" />
        </mxCell>
        <mxCell id="ki4iIs-BJcIgKBQHwX4F-197" style="shape=partialRectangle;collapsible=0;dropTarget=0;pointerEvents=0;fillColor=none;top=0;left=0;bottom=0;right=0;points=[[0,0.5],[1,0.5]];portConstraint=eastwest;" vertex="1" parent="ki4iIs-BJcIgKBQHwX4F-184">
          <mxGeometry y="150" width="180" height="30" as="geometry" />
        </mxCell>
        <mxCell id="ki4iIs-BJcIgKBQHwX4F-198" style="shape=partialRectangle;connectable=0;fillColor=none;top=0;left=0;bottom=0;right=0;editable=1;overflow=hidden;" vertex="1" parent="ki4iIs-BJcIgKBQHwX4F-197">
          <mxGeometry width="30" height="30" as="geometry" />
        </mxCell>
        <mxCell id="ki4iIs-BJcIgKBQHwX4F-199" value="country" style="shape=partialRectangle;connectable=0;fillColor=none;top=0;left=0;bottom=0;right=0;align=left;spacingLeft=6;overflow=hidden;" vertex="1" parent="ki4iIs-BJcIgKBQHwX4F-197">
          <mxGeometry x="30" width="150" height="30" as="geometry" />
        </mxCell>
        <mxCell id="ki4iIs-BJcIgKBQHwX4F-47" value="Staff" style="shape=table;startSize=30;container=1;collapsible=1;childLayout=tableLayout;fixedRows=1;rowLines=0;fontStyle=1;align=center;resizeLast=1;" vertex="1" parent="1">
          <mxGeometry x="270" y="610" width="180" height="490" as="geometry" />
        </mxCell>
        <mxCell id="ki4iIs-BJcIgKBQHwX4F-48" value="" style="shape=partialRectangle;collapsible=0;dropTarget=0;pointerEvents=0;fillColor=none;top=0;left=0;bottom=1;right=0;points=[[0,0.5],[1,0.5]];portConstraint=eastwest;" vertex="1" parent="ki4iIs-BJcIgKBQHwX4F-47">
          <mxGeometry y="30" width="180" height="30" as="geometry" />
        </mxCell>
        <mxCell id="ki4iIs-BJcIgKBQHwX4F-49" value="PK" style="shape=partialRectangle;connectable=0;fillColor=none;top=0;left=0;bottom=0;right=0;fontStyle=1;overflow=hidden;" vertex="1" parent="ki4iIs-BJcIgKBQHwX4F-48">
          <mxGeometry width="30" height="30" as="geometry" />
        </mxCell>
        <mxCell id="ki4iIs-BJcIgKBQHwX4F-50" value="staffID" style="shape=partialRectangle;connectable=0;fillColor=none;top=0;left=0;bottom=0;right=0;align=left;spacingLeft=6;fontStyle=5;overflow=hidden;" vertex="1" parent="ki4iIs-BJcIgKBQHwX4F-48">
          <mxGeometry x="30" width="150" height="30" as="geometry" />
        </mxCell>
        <mxCell id="ki4iIs-BJcIgKBQHwX4F-51" value="" style="shape=partialRectangle;collapsible=0;dropTarget=0;pointerEvents=0;fillColor=none;top=0;left=0;bottom=0;right=0;points=[[0,0.5],[1,0.5]];portConstraint=eastwest;" vertex="1" parent="ki4iIs-BJcIgKBQHwX4F-47">
          <mxGeometry y="60" width="180" height="30" as="geometry" />
        </mxCell>
        <mxCell id="ki4iIs-BJcIgKBQHwX4F-52" value="" style="shape=partialRectangle;connectable=0;fillColor=none;top=0;left=0;bottom=0;right=0;editable=1;overflow=hidden;" vertex="1" parent="ki4iIs-BJcIgKBQHwX4F-51">
          <mxGeometry width="30" height="30" as="geometry" />
        </mxCell>
        <mxCell id="ki4iIs-BJcIgKBQHwX4F-53" value="firstName" style="shape=partialRectangle;connectable=0;fillColor=none;top=0;left=0;bottom=0;right=0;align=left;spacingLeft=6;overflow=hidden;" vertex="1" parent="ki4iIs-BJcIgKBQHwX4F-51">
          <mxGeometry x="30" width="150" height="30" as="geometry" />
        </mxCell>
        <mxCell id="ki4iIs-BJcIgKBQHwX4F-54" value="" style="shape=partialRectangle;collapsible=0;dropTarget=0;pointerEvents=0;fillColor=none;top=0;left=0;bottom=0;right=0;points=[[0,0.5],[1,0.5]];portConstraint=eastwest;" vertex="1" parent="ki4iIs-BJcIgKBQHwX4F-47">
          <mxGeometry y="90" width="180" height="30" as="geometry" />
        </mxCell>
        <mxCell id="ki4iIs-BJcIgKBQHwX4F-55" value="" style="shape=partialRectangle;connectable=0;fillColor=none;top=0;left=0;bottom=0;right=0;editable=1;overflow=hidden;" vertex="1" parent="ki4iIs-BJcIgKBQHwX4F-54">
          <mxGeometry width="30" height="30" as="geometry" />
        </mxCell>
        <mxCell id="ki4iIs-BJcIgKBQHwX4F-56" value="lastName" style="shape=partialRectangle;connectable=0;fillColor=none;top=0;left=0;bottom=0;right=0;align=left;spacingLeft=6;overflow=hidden;" vertex="1" parent="ki4iIs-BJcIgKBQHwX4F-54">
          <mxGeometry x="30" width="150" height="30" as="geometry" />
        </mxCell>
        <mxCell id="ki4iIs-BJcIgKBQHwX4F-57" value="" style="shape=partialRectangle;collapsible=0;dropTarget=0;pointerEvents=0;fillColor=none;top=0;left=0;bottom=0;right=0;points=[[0,0.5],[1,0.5]];portConstraint=eastwest;" vertex="1" parent="ki4iIs-BJcIgKBQHwX4F-47">
          <mxGeometry y="120" width="180" height="30" as="geometry" />
        </mxCell>
        <mxCell id="ki4iIs-BJcIgKBQHwX4F-58" value="" style="shape=partialRectangle;connectable=0;fillColor=none;top=0;left=0;bottom=0;right=0;editable=1;overflow=hidden;" vertex="1" parent="ki4iIs-BJcIgKBQHwX4F-57">
          <mxGeometry width="30" height="30" as="geometry" />
        </mxCell>
        <mxCell id="ki4iIs-BJcIgKBQHwX4F-59" value="phone" style="shape=partialRectangle;connectable=0;fillColor=none;top=0;left=0;bottom=0;right=0;align=left;spacingLeft=6;overflow=hidden;" vertex="1" parent="ki4iIs-BJcIgKBQHwX4F-57">
          <mxGeometry x="30" width="150" height="30" as="geometry" />
        </mxCell>
        <mxCell id="ki4iIs-BJcIgKBQHwX4F-60" style="shape=partialRectangle;collapsible=0;dropTarget=0;pointerEvents=0;fillColor=none;top=0;left=0;bottom=0;right=0;points=[[0,0.5],[1,0.5]];portConstraint=eastwest;" vertex="1" parent="ki4iIs-BJcIgKBQHwX4F-47">
          <mxGeometry y="150" width="180" height="30" as="geometry" />
        </mxCell>
        <mxCell id="ki4iIs-BJcIgKBQHwX4F-61" style="shape=partialRectangle;connectable=0;fillColor=none;top=0;left=0;bottom=0;right=0;editable=1;overflow=hidden;" vertex="1" parent="ki4iIs-BJcIgKBQHwX4F-60">
          <mxGeometry width="30" height="30" as="geometry" />
        </mxCell>
        <mxCell id="ki4iIs-BJcIgKBQHwX4F-62" value="DOB" style="shape=partialRectangle;connectable=0;fillColor=none;top=0;left=0;bottom=0;right=0;align=left;spacingLeft=6;overflow=hidden;" vertex="1" parent="ki4iIs-BJcIgKBQHwX4F-60">
          <mxGeometry x="30" width="150" height="30" as="geometry" />
        </mxCell>
        <mxCell id="ki4iIs-BJcIgKBQHwX4F-63" style="shape=partialRectangle;collapsible=0;dropTarget=0;pointerEvents=0;fillColor=none;top=0;left=0;bottom=0;right=0;points=[[0,0.5],[1,0.5]];portConstraint=eastwest;" vertex="1" parent="ki4iIs-BJcIgKBQHwX4F-47">
          <mxGeometry y="180" width="180" height="30" as="geometry" />
        </mxCell>
        <mxCell id="ki4iIs-BJcIgKBQHwX4F-64" style="shape=partialRectangle;connectable=0;fillColor=none;top=0;left=0;bottom=0;right=0;editable=1;overflow=hidden;" vertex="1" parent="ki4iIs-BJcIgKBQHwX4F-63">
          <mxGeometry width="30" height="30" as="geometry" />
        </mxCell>
        <mxCell id="ki4iIs-BJcIgKBQHwX4F-65" value="gender" style="shape=partialRectangle;connectable=0;fillColor=none;top=0;left=0;bottom=0;right=0;align=left;spacingLeft=6;overflow=hidden;" vertex="1" parent="ki4iIs-BJcIgKBQHwX4F-63">
          <mxGeometry x="30" width="150" height="30" as="geometry" />
        </mxCell>
        <mxCell id="ki4iIs-BJcIgKBQHwX4F-90" style="shape=partialRectangle;collapsible=0;dropTarget=0;pointerEvents=0;fillColor=none;top=0;left=0;bottom=0;right=0;points=[[0,0.5],[1,0.5]];portConstraint=eastwest;" vertex="1" parent="ki4iIs-BJcIgKBQHwX4F-47">
          <mxGeometry y="210" width="180" height="30" as="geometry" />
        </mxCell>
        <mxCell id="ki4iIs-BJcIgKBQHwX4F-91" style="shape=partialRectangle;connectable=0;fillColor=none;top=0;left=0;bottom=0;right=0;editable=1;overflow=hidden;" vertex="1" parent="ki4iIs-BJcIgKBQHwX4F-90">
          <mxGeometry width="30" height="30" as="geometry" />
        </mxCell>
        <mxCell id="ki4iIs-BJcIgKBQHwX4F-92" value="rank" style="shape=partialRectangle;connectable=0;fillColor=none;top=0;left=0;bottom=0;right=0;align=left;spacingLeft=6;overflow=hidden;" vertex="1" parent="ki4iIs-BJcIgKBQHwX4F-90">
          <mxGeometry x="30" width="150" height="30" as="geometry" />
        </mxCell>
        <mxCell id="ki4iIs-BJcIgKBQHwX4F-87" style="shape=partialRectangle;collapsible=0;dropTarget=0;pointerEvents=0;fillColor=none;top=0;left=0;bottom=0;right=0;points=[[0,0.5],[1,0.5]];portConstraint=eastwest;" vertex="1" parent="ki4iIs-BJcIgKBQHwX4F-47">
          <mxGeometry y="240" width="180" height="30" as="geometry" />
        </mxCell>
        <mxCell id="ki4iIs-BJcIgKBQHwX4F-88" style="shape=partialRectangle;connectable=0;fillColor=none;top=0;left=0;bottom=0;right=0;editable=1;overflow=hidden;" vertex="1" parent="ki4iIs-BJcIgKBQHwX4F-87">
          <mxGeometry width="30" height="30" as="geometry" />
        </mxCell>
        <mxCell id="ki4iIs-BJcIgKBQHwX4F-89" value="genderPreference" style="shape=partialRectangle;connectable=0;fillColor=none;top=0;left=0;bottom=0;right=0;align=left;spacingLeft=6;overflow=hidden;" vertex="1" parent="ki4iIs-BJcIgKBQHwX4F-87">
          <mxGeometry x="30" width="150" height="30" as="geometry" />
        </mxCell>
        <mxCell id="ki4iIs-BJcIgKBQHwX4F-66" style="shape=partialRectangle;collapsible=0;dropTarget=0;pointerEvents=0;fillColor=none;top=0;left=0;bottom=0;right=0;points=[[0,0.5],[1,0.5]];portConstraint=eastwest;" vertex="1" parent="ki4iIs-BJcIgKBQHwX4F-47">
          <mxGeometry y="270" width="180" height="30" as="geometry" />
        </mxCell>
        <mxCell id="ki4iIs-BJcIgKBQHwX4F-67" style="shape=partialRectangle;connectable=0;fillColor=none;top=0;left=0;bottom=0;right=0;editable=1;overflow=hidden;" vertex="1" parent="ki4iIs-BJcIgKBQHwX4F-66">
          <mxGeometry width="30" height="30" as="geometry" />
        </mxCell>
        <mxCell id="ki4iIs-BJcIgKBQHwX4F-68" value="emailAddress" style="shape=partialRectangle;connectable=0;fillColor=none;top=0;left=0;bottom=0;right=0;align=left;spacingLeft=6;overflow=hidden;" vertex="1" parent="ki4iIs-BJcIgKBQHwX4F-66">
          <mxGeometry x="30" width="150" height="30" as="geometry" />
        </mxCell>
        <mxCell id="ki4iIs-BJcIgKBQHwX4F-69" style="shape=partialRectangle;collapsible=0;dropTarget=0;pointerEvents=0;fillColor=none;top=0;left=0;bottom=0;right=0;points=[[0,0.5],[1,0.5]];portConstraint=eastwest;" vertex="1" parent="ki4iIs-BJcIgKBQHwX4F-47">
          <mxGeometry y="300" width="180" height="30" as="geometry" />
        </mxCell>
        <mxCell id="ki4iIs-BJcIgKBQHwX4F-70" style="shape=partialRectangle;connectable=0;fillColor=none;top=0;left=0;bottom=0;right=0;editable=1;overflow=hidden;" vertex="1" parent="ki4iIs-BJcIgKBQHwX4F-69">
          <mxGeometry width="30" height="30" as="geometry" />
        </mxCell>
        <mxCell id="ki4iIs-BJcIgKBQHwX4F-71" value="homeAddress" style="shape=partialRectangle;connectable=0;fillColor=none;top=0;left=0;bottom=0;right=0;align=left;spacingLeft=6;overflow=hidden;" vertex="1" parent="ki4iIs-BJcIgKBQHwX4F-69">
          <mxGeometry x="30" width="150" height="30" as="geometry" />
        </mxCell>
        <mxCell id="ki4iIs-BJcIgKBQHwX4F-72" style="shape=partialRectangle;collapsible=0;dropTarget=0;pointerEvents=0;fillColor=none;top=0;left=0;bottom=0;right=0;points=[[0,0.5],[1,0.5]];portConstraint=eastwest;" vertex="1" parent="ki4iIs-BJcIgKBQHwX4F-47">
          <mxGeometry y="330" width="180" height="30" as="geometry" />
        </mxCell>
        <mxCell id="ki4iIs-BJcIgKBQHwX4F-73" style="shape=partialRectangle;connectable=0;fillColor=none;top=0;left=0;bottom=0;right=0;editable=1;overflow=hidden;" vertex="1" parent="ki4iIs-BJcIgKBQHwX4F-72">
          <mxGeometry width="30" height="30" as="geometry" />
        </mxCell>
        <mxCell id="ki4iIs-BJcIgKBQHwX4F-74" value="country" style="shape=partialRectangle;connectable=0;fillColor=none;top=0;left=0;bottom=0;right=0;align=left;spacingLeft=6;overflow=hidden;" vertex="1" parent="ki4iIs-BJcIgKBQHwX4F-72">
          <mxGeometry x="30" width="150" height="30" as="geometry" />
        </mxCell>
        <mxCell id="ki4iIs-BJcIgKBQHwX4F-75" style="shape=partialRectangle;collapsible=0;dropTarget=0;pointerEvents=0;fillColor=none;top=0;left=0;bottom=0;right=0;points=[[0,0.5],[1,0.5]];portConstraint=eastwest;" vertex="1" parent="ki4iIs-BJcIgKBQHwX4F-47">
          <mxGeometry y="360" width="180" height="30" as="geometry" />
        </mxCell>
        <mxCell id="ki4iIs-BJcIgKBQHwX4F-76" style="shape=partialRectangle;connectable=0;fillColor=none;top=0;left=0;bottom=0;right=0;editable=1;overflow=hidden;" vertex="1" parent="ki4iIs-BJcIgKBQHwX4F-75">
          <mxGeometry width="30" height="30" as="geometry" />
        </mxCell>
        <mxCell id="ki4iIs-BJcIgKBQHwX4F-77" value="city" style="shape=partialRectangle;connectable=0;fillColor=none;top=0;left=0;bottom=0;right=0;align=left;spacingLeft=6;overflow=hidden;" vertex="1" parent="ki4iIs-BJcIgKBQHwX4F-75">
          <mxGeometry x="30" width="150" height="30" as="geometry" />
        </mxCell>
        <mxCell id="ki4iIs-BJcIgKBQHwX4F-78" style="shape=partialRectangle;collapsible=0;dropTarget=0;pointerEvents=0;fillColor=none;top=0;left=0;bottom=0;right=0;points=[[0,0.5],[1,0.5]];portConstraint=eastwest;" vertex="1" parent="ki4iIs-BJcIgKBQHwX4F-47">
          <mxGeometry y="390" width="180" height="30" as="geometry" />
        </mxCell>
        <mxCell id="ki4iIs-BJcIgKBQHwX4F-79" style="shape=partialRectangle;connectable=0;fillColor=none;top=0;left=0;bottom=0;right=0;editable=1;overflow=hidden;" vertex="1" parent="ki4iIs-BJcIgKBQHwX4F-78">
          <mxGeometry width="30" height="30" as="geometry" />
        </mxCell>
        <mxCell id="ki4iIs-BJcIgKBQHwX4F-80" value="state" style="shape=partialRectangle;connectable=0;fillColor=none;top=0;left=0;bottom=0;right=0;align=left;spacingLeft=6;overflow=hidden;" vertex="1" parent="ki4iIs-BJcIgKBQHwX4F-78">
          <mxGeometry x="30" width="150" height="30" as="geometry" />
        </mxCell>
        <mxCell id="ki4iIs-BJcIgKBQHwX4F-81" style="shape=partialRectangle;collapsible=0;dropTarget=0;pointerEvents=0;fillColor=none;top=0;left=0;bottom=0;right=0;points=[[0,0.5],[1,0.5]];portConstraint=eastwest;" vertex="1" parent="ki4iIs-BJcIgKBQHwX4F-47">
          <mxGeometry y="420" width="180" height="30" as="geometry" />
        </mxCell>
        <mxCell id="ki4iIs-BJcIgKBQHwX4F-82" style="shape=partialRectangle;connectable=0;fillColor=none;top=0;left=0;bottom=0;right=0;editable=1;overflow=hidden;" vertex="1" parent="ki4iIs-BJcIgKBQHwX4F-81">
          <mxGeometry width="30" height="30" as="geometry" />
        </mxCell>
        <mxCell id="ki4iIs-BJcIgKBQHwX4F-83" value="zipCode" style="shape=partialRectangle;connectable=0;fillColor=none;top=0;left=0;bottom=0;right=0;align=left;spacingLeft=6;overflow=hidden;" vertex="1" parent="ki4iIs-BJcIgKBQHwX4F-81">
          <mxGeometry x="30" width="150" height="30" as="geometry" />
        </mxCell>
        <mxCell id="ki4iIs-BJcIgKBQHwX4F-84" style="shape=partialRectangle;collapsible=0;dropTarget=0;pointerEvents=0;fillColor=none;top=0;left=0;bottom=0;right=0;points=[[0,0.5],[1,0.5]];portConstraint=eastwest;" vertex="1" parent="ki4iIs-BJcIgKBQHwX4F-47">
          <mxGeometry y="450" width="180" height="30" as="geometry" />
        </mxCell>
        <mxCell id="ki4iIs-BJcIgKBQHwX4F-85" style="shape=partialRectangle;connectable=0;fillColor=none;top=0;left=0;bottom=0;right=0;editable=1;overflow=hidden;" vertex="1" parent="ki4iIs-BJcIgKBQHwX4F-84">
          <mxGeometry width="30" height="30" as="geometry" />
        </mxCell>
        <mxCell id="ki4iIs-BJcIgKBQHwX4F-86" value="hireDate" style="shape=partialRectangle;connectable=0;fillColor=none;top=0;left=0;bottom=0;right=0;align=left;spacingLeft=6;overflow=hidden;" vertex="1" parent="ki4iIs-BJcIgKBQHwX4F-84">
          <mxGeometry x="30" width="150" height="30" as="geometry" />
        </mxCell>
        <mxCell id="ki4iIs-BJcIgKBQHwX4F-201" value="" style="edgeStyle=orthogonalEdgeStyle;fontSize=12;html=1;endArrow=ERzeroToMany;startArrow=ERmandOne;exitX=0;exitY=0.5;exitDx=0;exitDy=0;entryX=0;entryY=0.5;entryDx=0;entryDy=0;" edge="1" parent="1" source="ki4iIs-BJcIgKBQHwX4F-48" target="ki4iIs-BJcIgKBQHwX4F-177">
          <mxGeometry width="100" height="100" relative="1" as="geometry">
            <mxPoint x="60" y="685" as="sourcePoint" />
            <mxPoint x="160" y="585" as="targetPoint" />
            <Array as="points">
              <mxPoint x="230" y="655" />
              <mxPoint x="230" y="445" />
            </Array>
          </mxGeometry>
        </mxCell>
        <mxCell id="ki4iIs-BJcIgKBQHwX4F-93" value="Administrator" style="shape=table;startSize=30;container=1;collapsible=1;childLayout=tableLayout;fixedRows=1;rowLines=0;fontStyle=1;align=center;resizeLast=1;" vertex="1" parent="1">
          <mxGeometry x="560" y="570" width="180" height="130" as="geometry" />
        </mxCell>
        <mxCell id="ki4iIs-BJcIgKBQHwX4F-94" value="" style="shape=partialRectangle;collapsible=0;dropTarget=0;pointerEvents=0;fillColor=none;top=0;left=0;bottom=1;right=0;points=[[0,0.5],[1,0.5]];portConstraint=eastwest;" vertex="1" parent="ki4iIs-BJcIgKBQHwX4F-93">
          <mxGeometry y="30" width="180" height="30" as="geometry" />
        </mxCell>
        <mxCell id="ki4iIs-BJcIgKBQHwX4F-95" value="PK" style="shape=partialRectangle;connectable=0;fillColor=none;top=0;left=0;bottom=0;right=0;fontStyle=1;overflow=hidden;" vertex="1" parent="ki4iIs-BJcIgKBQHwX4F-94">
          <mxGeometry width="30" height="30" as="geometry" />
        </mxCell>
        <mxCell id="ki4iIs-BJcIgKBQHwX4F-96" value="username" style="shape=partialRectangle;connectable=0;fillColor=none;top=0;left=0;bottom=0;right=0;align=left;spacingLeft=6;fontStyle=5;overflow=hidden;" vertex="1" parent="ki4iIs-BJcIgKBQHwX4F-94">
          <mxGeometry x="30" width="150" height="30" as="geometry" />
        </mxCell>
        <mxCell id="ki4iIs-BJcIgKBQHwX4F-97" value="" style="shape=partialRectangle;collapsible=0;dropTarget=0;pointerEvents=0;fillColor=none;top=0;left=0;bottom=0;right=0;points=[[0,0.5],[1,0.5]];portConstraint=eastwest;" vertex="1" parent="ki4iIs-BJcIgKBQHwX4F-93">
          <mxGeometry y="60" width="180" height="30" as="geometry" />
        </mxCell>
        <mxCell id="ki4iIs-BJcIgKBQHwX4F-98" value="FK4" style="shape=partialRectangle;connectable=0;fillColor=none;top=0;left=0;bottom=0;right=0;editable=1;overflow=hidden;" vertex="1" parent="ki4iIs-BJcIgKBQHwX4F-97">
          <mxGeometry width="30" height="30" as="geometry" />
        </mxCell>
        <mxCell id="ki4iIs-BJcIgKBQHwX4F-99" value="staffID" style="shape=partialRectangle;connectable=0;fillColor=none;top=0;left=0;bottom=0;right=0;align=left;spacingLeft=6;overflow=hidden;" vertex="1" parent="ki4iIs-BJcIgKBQHwX4F-97">
          <mxGeometry x="30" width="150" height="30" as="geometry" />
        </mxCell>
        <mxCell id="ki4iIs-BJcIgKBQHwX4F-100" value="" style="shape=partialRectangle;collapsible=0;dropTarget=0;pointerEvents=0;fillColor=none;top=0;left=0;bottom=0;right=0;points=[[0,0.5],[1,0.5]];portConstraint=eastwest;" vertex="1" parent="ki4iIs-BJcIgKBQHwX4F-93">
          <mxGeometry y="90" width="180" height="30" as="geometry" />
        </mxCell>
        <mxCell id="ki4iIs-BJcIgKBQHwX4F-101" value="" style="shape=partialRectangle;connectable=0;fillColor=none;top=0;left=0;bottom=0;right=0;editable=1;overflow=hidden;" vertex="1" parent="ki4iIs-BJcIgKBQHwX4F-100">
          <mxGeometry width="30" height="30" as="geometry" />
        </mxCell>
        <mxCell id="ki4iIs-BJcIgKBQHwX4F-102" value="password" style="shape=partialRectangle;connectable=0;fillColor=none;top=0;left=0;bottom=0;right=0;align=left;spacingLeft=6;overflow=hidden;" vertex="1" parent="ki4iIs-BJcIgKBQHwX4F-100">
          <mxGeometry x="30" width="150" height="30" as="geometry" />
        </mxCell>
        <mxCell id="ki4iIs-BJcIgKBQHwX4F-202" value="" style="edgeStyle=entityRelationEdgeStyle;fontSize=12;html=1;endArrow=ERzeroToOne;startArrow=ERmandOne;entryX=0;entryY=0.5;entryDx=0;entryDy=0;exitX=1;exitY=0.167;exitDx=0;exitDy=0;exitPerimeter=0;" edge="1" parent="1" source="ki4iIs-BJcIgKBQHwX4F-48" target="ki4iIs-BJcIgKBQHwX4F-97">
          <mxGeometry width="100" height="100" relative="1" as="geometry">
            <mxPoint x="310" y="740" as="sourcePoint" />
            <mxPoint x="410" y="640" as="targetPoint" />
          </mxGeometry>
        </mxCell>
        <mxCell id="ki4iIs-BJcIgKBQHwX4F-106" value="Instructor_Specialisation" style="shape=table;startSize=30;container=1;collapsible=1;childLayout=tableLayout;fixedRows=1;rowLines=0;fontStyle=1;align=center;resizeLast=1;" vertex="1" parent="1">
          <mxGeometry x="560" y="780" width="180" height="130" as="geometry" />
        </mxCell>
        <mxCell id="ki4iIs-BJcIgKBQHwX4F-107" value="" style="shape=partialRectangle;collapsible=0;dropTarget=0;pointerEvents=0;fillColor=none;top=0;left=0;bottom=0;right=0;points=[[0,0.5],[1,0.5]];portConstraint=eastwest;" vertex="1" parent="ki4iIs-BJcIgKBQHwX4F-106">
          <mxGeometry y="30" width="180" height="30" as="geometry" />
        </mxCell>
        <mxCell id="ki4iIs-BJcIgKBQHwX4F-108" value="PK,FK4" style="shape=partialRectangle;connectable=0;fillColor=none;top=0;left=0;bottom=0;right=0;fontStyle=1;overflow=hidden;" vertex="1" parent="ki4iIs-BJcIgKBQHwX4F-107">
          <mxGeometry width="60" height="30" as="geometry" />
        </mxCell>
        <mxCell id="ki4iIs-BJcIgKBQHwX4F-109" value="staffID" style="shape=partialRectangle;connectable=0;fillColor=none;top=0;left=0;bottom=0;right=0;align=left;spacingLeft=6;fontStyle=5;overflow=hidden;" vertex="1" parent="ki4iIs-BJcIgKBQHwX4F-107">
          <mxGeometry x="60" width="120" height="30" as="geometry" />
        </mxCell>
        <mxCell id="ki4iIs-BJcIgKBQHwX4F-110" value="" style="shape=partialRectangle;collapsible=0;dropTarget=0;pointerEvents=0;fillColor=none;top=0;left=0;bottom=1;right=0;points=[[0,0.5],[1,0.5]];portConstraint=eastwest;" vertex="1" parent="ki4iIs-BJcIgKBQHwX4F-106">
          <mxGeometry y="60" width="180" height="30" as="geometry" />
        </mxCell>
        <mxCell id="ki4iIs-BJcIgKBQHwX4F-111" value="PK,FK5" style="shape=partialRectangle;connectable=0;fillColor=none;top=0;left=0;bottom=0;right=0;fontStyle=1;overflow=hidden;" vertex="1" parent="ki4iIs-BJcIgKBQHwX4F-110">
          <mxGeometry width="60" height="30" as="geometry" />
        </mxCell>
        <mxCell id="ki4iIs-BJcIgKBQHwX4F-112" value="specialisationID" style="shape=partialRectangle;connectable=0;fillColor=none;top=0;left=0;bottom=0;right=0;align=left;spacingLeft=6;fontStyle=5;overflow=hidden;" vertex="1" parent="ki4iIs-BJcIgKBQHwX4F-110">
          <mxGeometry x="60" width="120" height="30" as="geometry" />
        </mxCell>
        <mxCell id="ki4iIs-BJcIgKBQHwX4F-113" value="" style="shape=partialRectangle;collapsible=0;dropTarget=0;pointerEvents=0;fillColor=none;top=0;left=0;bottom=0;right=0;points=[[0,0.5],[1,0.5]];portConstraint=eastwest;" vertex="1" parent="ki4iIs-BJcIgKBQHwX4F-106">
          <mxGeometry y="90" width="180" height="30" as="geometry" />
        </mxCell>
        <mxCell id="ki4iIs-BJcIgKBQHwX4F-114" value="" style="shape=partialRectangle;connectable=0;fillColor=none;top=0;left=0;bottom=0;right=0;editable=1;overflow=hidden;" vertex="1" parent="ki4iIs-BJcIgKBQHwX4F-113">
          <mxGeometry width="60" height="30" as="geometry" />
        </mxCell>
        <mxCell id="ki4iIs-BJcIgKBQHwX4F-115" value="grading" style="shape=partialRectangle;connectable=0;fillColor=none;top=0;left=0;bottom=0;right=0;align=left;spacingLeft=6;overflow=hidden;" vertex="1" parent="ki4iIs-BJcIgKBQHwX4F-113">
          <mxGeometry x="60" width="120" height="30" as="geometry" />
        </mxCell>
        <mxCell id="ki4iIs-BJcIgKBQHwX4F-203" value="" style="edgeStyle=entityRelationEdgeStyle;fontSize=12;html=1;endArrow=ERzeroToMany;startArrow=ERmandOne;exitX=1;exitY=0.5;exitDx=0;exitDy=0;entryX=0;entryY=0.5;entryDx=0;entryDy=0;" edge="1" parent="1" source="ki4iIs-BJcIgKBQHwX4F-48" target="ki4iIs-BJcIgKBQHwX4F-107">
          <mxGeometry width="100" height="100" relative="1" as="geometry">
            <mxPoint x="310" y="760" as="sourcePoint" />
            <mxPoint x="410" y="660" as="targetPoint" />
          </mxGeometry>
        </mxCell>
        <mxCell id="ki4iIs-BJcIgKBQHwX4F-204" value="" style="edgeStyle=entityRelationEdgeStyle;fontSize=12;html=1;endArrow=ERzeroToMany;startArrow=ERmandOne;exitX=0;exitY=0.5;exitDx=0;exitDy=0;entryX=1;entryY=0.5;entryDx=0;entryDy=0;" edge="1" parent="1" source="ki4iIs-BJcIgKBQHwX4F-120" target="ki4iIs-BJcIgKBQHwX4F-110">
          <mxGeometry width="100" height="100" relative="1" as="geometry">
            <mxPoint x="790" y="760" as="sourcePoint" />
            <mxPoint x="890" y="660" as="targetPoint" />
          </mxGeometry>
        </mxCell>
        <mxCell id="ki4iIs-BJcIgKBQHwX4F-119" value="Specialisation" style="shape=table;startSize=30;container=1;collapsible=1;childLayout=tableLayout;fixedRows=1;rowLines=0;fontStyle=1;align=center;resizeLast=1;" vertex="1" parent="1">
          <mxGeometry x="827" y="810" width="180" height="100" as="geometry" />
        </mxCell>
        <mxCell id="ki4iIs-BJcIgKBQHwX4F-120" value="" style="shape=partialRectangle;collapsible=0;dropTarget=0;pointerEvents=0;fillColor=none;top=0;left=0;bottom=1;right=0;points=[[0,0.5],[1,0.5]];portConstraint=eastwest;" vertex="1" parent="ki4iIs-BJcIgKBQHwX4F-119">
          <mxGeometry y="30" width="180" height="30" as="geometry" />
        </mxCell>
        <mxCell id="ki4iIs-BJcIgKBQHwX4F-121" value="PK" style="shape=partialRectangle;connectable=0;fillColor=none;top=0;left=0;bottom=0;right=0;fontStyle=1;overflow=hidden;" vertex="1" parent="ki4iIs-BJcIgKBQHwX4F-120">
          <mxGeometry width="30" height="30" as="geometry" />
        </mxCell>
        <mxCell id="ki4iIs-BJcIgKBQHwX4F-122" value="specialisationID" style="shape=partialRectangle;connectable=0;fillColor=none;top=0;left=0;bottom=0;right=0;align=left;spacingLeft=6;fontStyle=5;overflow=hidden;" vertex="1" parent="ki4iIs-BJcIgKBQHwX4F-120">
          <mxGeometry x="30" width="150" height="30" as="geometry" />
        </mxCell>
        <mxCell id="ki4iIs-BJcIgKBQHwX4F-123" value="" style="shape=partialRectangle;collapsible=0;dropTarget=0;pointerEvents=0;fillColor=none;top=0;left=0;bottom=0;right=0;points=[[0,0.5],[1,0.5]];portConstraint=eastwest;" vertex="1" parent="ki4iIs-BJcIgKBQHwX4F-119">
          <mxGeometry y="60" width="180" height="30" as="geometry" />
        </mxCell>
        <mxCell id="ki4iIs-BJcIgKBQHwX4F-124" value="" style="shape=partialRectangle;connectable=0;fillColor=none;top=0;left=0;bottom=0;right=0;editable=1;overflow=hidden;" vertex="1" parent="ki4iIs-BJcIgKBQHwX4F-123">
          <mxGeometry width="30" height="30" as="geometry" />
        </mxCell>
        <mxCell id="ki4iIs-BJcIgKBQHwX4F-125" value="specialisationName" style="shape=partialRectangle;connectable=0;fillColor=none;top=0;left=0;bottom=0;right=0;align=left;spacingLeft=6;overflow=hidden;" vertex="1" parent="ki4iIs-BJcIgKBQHwX4F-123">
          <mxGeometry x="30" width="150" height="30" as="geometry" />
        </mxCell>
      </root>
    </mxGraphModel>
  </diagram>
</mxfile>
